<?xml version="1.0" encoding="utf-8"?>
<!-- Generator: Adobe Illustrator 23.0.1, SVG Export Plug-In . SVG Version: 6.00 Build 0)  -->
<svg version="1.1" id="Layer_1" xmlns="http://www.w3.org/2000/svg" xmlns:xlink="http://www.w3.org/1999/xlink" x="0px" y="0px"
	 viewBox="0 0 24 24" style="enable-background:new 0 0 24 24;" xml:space="preserve">
<style type="text/css">
	.st0{fill:#C50F33;}
</style>
<path class="st0" d="M19,17c-0.5-0.5-1-1-1.4-1.4S17,14.9,17,14.9l-2.8-1.3C15.3,12.4,16,10.8,16,9c0-3.9-3.1-7-7-7S2,5.1,2,9
	s3.1,7,7,7c1.8,0,3.4-0.7,4.6-1.7l1.3,2.8c0,0,0.3,0.2,0.7,0.6C16,18,16.5,18.5,17,19s1,1,1.4,1.4S19,21,19,21l2.1-2.1
	c0,0-0.3-0.2-0.6-0.6C20,18,19.5,17.5,19,17z M9,14c-2.8,0-5-2.2-5-5s2.2-5,5-5s5,2.2,5,5S11.8,14,9,14z"/>
<path class="st0" d="M10.4,7.6C10.8,8,11,8.5,11,9h2c0-1.1-0.4-2.1-1.2-2.8c-1.5-1.5-4.1-1.5-5.7,0l1.4,1.4
	C8.3,6.8,9.6,6.9,10.4,7.6z"/>
</svg>
