<svg xmlns="http://www.w3.org/2000/svg" viewBox="0 0 363.53758 292.68278">
  <title>Asset 7</title>
  <g id="Layer_2" data-name="Layer 2">
    <g id="Layer_1-2" data-name="Layer 1">
      <g>
        <g>
          <path d="M210.01716,52.75918c.38283-.49561.7335-1.02044,1.15332-1.48244q8.86911-9.76045,17.75527-19.50542c7.15278-7.84808,14.32512-15.6785,21.42824-23.57123a2.89745,2.89745,0,0,0,.53474-2.2408C250.02661,2.07941,246.64583.62382,243.33991,0a2.60043,2.60043,0,0,0-1.98944.91853Q226.657,18.66672,212.05942,36.49421c-2.894,3.52765-5.73278,7.10059-8.59686,10.65278-.6308-.31667-1.51367-.46683-1.85095-.97736-1.993-3.01677-4.722-3.5016-7.96259-2.61989a4.35478,4.35478,0,0,1-3.81375-.82509,30.19966,30.19966,0,0,0-6.66969-3.32382,6.04744,6.04744,0,0,0-3.98057.25924c-2.09059.87548-3.97243,2.19984-6.43782,1.60886a2.5337,2.5337,0,0,0-1.64563.38478,10.14522,10.14522,0,0,1-5.946.97637c-3.03583-.16816-5.89775.23524-7.27173,3.7701-.37165.95616-1.84942,1.609-2.95549,2.08506-.39235.16888-1.17182-.63757-1.80518-.93314a7.71783,7.71783,0,0,0-2.34283-.92175,8.59471,8.59471,0,0,0-7.37083,2.87463,24.12367,24.12367,0,0,1-7.54322,5.78167,4.032,4.032,0,0,0-2.47825,3.62785c-.03076.48279-.14143.96051-.23161,1.54535a12.85184,12.85184,0,0,1-1.47287-.29342c-3.58331-1.19148-6.38473.36656-7.21427,4.03-.57176,2.525-.77239,2.68914-3.29642,2.69764-.4004.00136-.8012-.00733-1.20114.00721-2.93574.10675-4.15323,1.24037-4.87739,4.06635a3.20828,3.20828,0,0,1-1.72867,1.98384c-2.68839.90051-4.02265,2.56475-4.08385,5.42706a3.209,3.209,0,0,1-1.09674,2.29517c-2.48385,1.69927-2.536,1.62311-1.9087,4.49882-.54963.21978-1.11609.46084-1.69277.67424a4.69344,4.69344,0,0,0-3.34156,4.67948,10.38278,10.38278,0,0,0,1.02848,4.0529c.72645,1.45246.64393,2.4599-.67745,3.37758-.32679.227-.60668.52091-.91154.78006-3.04122,2.58528-3.31423,4.00694-1.61461,7.58028a2.29972,2.29972,0,0,1,.08948,1.85858c-1.396,2.21573-2.0531,4.42977-.7309,6.91061a2.38873,2.38873,0,0,1,.19313,1.00439c.16625,4.334.45346,8.66858.45,13.00281-.00951,12.07025,2.00305,23.62762,8.20382,34.19487a24.8589,24.8589,0,0,0,2.00076,3.98811,132.09378,132.09378,0,0,0,9.36622,11.93982c2.82209,3.00183,6.344,5.35525,9.61686,7.91794a3.077,3.077,0,0,1,1.36021,2.74837c-.05849,2.056-.02167,4.11661.03531,6.17359a7.08688,7.08688,0,0,0,2.21054,5.04322c2.995,2.91156,6.83829,4.041,10.73684,4.95586,10.01858,2.351,20.23486,2.90761,30.4727,3.03863a154.07426,154.07426,0,0,0,31.72885-2.54379,31.74494,31.74494,0,0,0,10.62309-3.66944c3.16009-1.9222,4.84-4.58139,4.4561-8.39129-.13146-1.305-.08939-2.6274-.13046-3.94174a4.62375,4.62375,0,0,1,2.15267-4.017,88.99334,88.99334,0,0,0,8.17429-6.76314A65.8355,65.8355,0,0,0,246.8549,152.9636c.94079-4.04973,2.443-8.06307,2.70838-12.15658.59808-9.22319.59446-18.48585.80294-27.73318a8.70311,8.70311,0,0,0-.30566-2.88729,8.715,8.715,0,0,1,.55849-6.321,4.3854,4.3854,0,0,0-1.255-5.55968,26.04161,26.04161,0,0,0-2.57476-1.98017,1.98267,1.98267,0,0,1-.75409-2.68273,17.22992,17.22992,0,0,0,.7198-1.73609,5.4619,5.4619,0,0,0-4.03076-7.25972,13.5546,13.5546,0,0,1-1.52322-.61369c1.80561-4.23942,1.75447-4.192-1.369-7.56371a4.03862,4.03862,0,0,1-.848-2.75587c.35243-5.00857-2.49695-7.75487-7.39422-6.95993-2.72657.44259-4.42672-.683-5.19372-3.32806a13.32445,13.32445,0,0,0-1.02794-2.11115,13.69572,13.69572,0,0,1,1.23575-.90136q14.01426-8.06854,28.03912-16.11869,15.06141-8.65767,30.10954-17.3384c.76387-.442,1.90233-1.08094,1.97419-1.72753.30056-2.70451.59169-5.53727-2.02285-7.51105a20.90958,20.90958,0,0,1-1.86773-1.50451,1.80325,1.80325,0,0,0-2.575-.11347q-12.31842,8.0638-24.68071,16.06081-17.81085,11.5541-35.63126,23.09348a6.46946,6.46946,0,0,0-6.65838-2.306A13.78083,13.78083,0,0,1,210.01716,52.75918Z" style="fill: #fdfdfd"/>
          <path d="M225.36816,61.31476a13.32472,13.32472,0,0,1,1.02793,2.11114c.767,2.64507,2.46715,3.77066,5.19373,3.32807,4.89728-.79494,7.74663,1.95136,7.39422,6.95993a4.03862,4.03862,0,0,0,.848,2.75587c3.1235,3.37165,3.17464,3.32429,1.369,7.56371a13.55613,13.55613,0,0,0,1.52322.61369,5.46189,5.46189,0,0,1,4.03077,7.25972,17.23225,17.23225,0,0,1-.7198,1.73609,1.98267,1.98267,0,0,0,.75408,2.68273,26.03927,26.03927,0,0,1,2.57476,1.98017,4.38539,4.38539,0,0,1,1.255,5.55968,8.71513,8.71513,0,0,0-.55849,6.321,8.70337,8.70337,0,0,1,.30566,2.88729c-.20849,9.24734-.20487,18.51-.80294,27.73318-.26544,4.09353-1.7676,8.10686-2.70827,12.15493-.77777-1.10649-1.59151-2.188-2.32809-3.31968a40.46568,40.46568,0,0,0-45.30061-17.1334c-10.8762,3.10235-18.75919,9.89147-22.94538,20.61079-1.03622,2.65339-1.743,5.47658-3.08043,7.96408-5.96072,11.08649-15.62965,17.00048-27.8661,18.26014-14.12151,1.4537-26.1798-3.24024-35.74222-13.93244a30.31842,30.31842,0,0,0-2.31969-2.12318c-6.20079-10.56724-8.21334-22.12462-8.20383-34.19488.00342-4.33423-.28379-8.66882-.45005-13.00281a2.38855,2.38855,0,0,0-.19312-1.00438c-1.32222-2.48083-.66512-4.69489.7309-6.91061A2.29972,2.29972,0,0,0,99.067,106.317c-1.6996-3.57334-1.42661-4.995,1.61461-7.58028.30485-.25915.58475-.55311.91154-.78006,1.32138-.91766,1.4039-1.92509.67745-3.37758a10.3828,10.3828,0,0,1-1.02844-4.05286,4.69345,4.69345,0,0,1,3.34156-4.67949c.57666-.21342,1.14314-.45446,1.69277-.67423-.62726-2.8757-.57515-2.79956,1.9087-4.49883a3.20893,3.20893,0,0,0,1.09674-2.29517c.0612-2.86231,1.39547-4.52655,4.08385-5.42706a3.20828,3.20828,0,0,0,1.72867-1.98384c.72416-2.826,1.94165-3.9596,4.87739-4.06634.39994-.01455.80074-.00585,1.20114-.00721,2.524-.0085,2.72466-.17261,3.29642-2.69765.82953-3.66343,3.631-5.22148,7.21428-4.03a12.8534,12.8534,0,0,0,1.47286.29342c.09018-.58484.20085-1.06256.23161-1.54536a4.03205,4.03205,0,0,1,2.47825-3.62785,24.12352,24.12352,0,0,0,7.54322-5.78167,8.5947,8.5947,0,0,1,7.37083-2.87462,7.71758,7.71758,0,0,1,2.34283.92175c.63336.29557,1.41283,1.102,1.80519.93313,1.10607-.47608,2.58384-1.12889,2.95549-2.08505,1.374-3.53486,4.23589-3.93826,7.27173-3.7701a10.14519,10.14519,0,0,0,5.946-.97637,2.53369,2.53369,0,0,1,1.64563-.38478c2.46539.591,4.34722-.73338,6.43781-1.60887a6.04746,6.04746,0,0,1,3.98058-.25923,30.19981,30.19981,0,0,1,6.66968,3.32382,4.35481,4.35481,0,0,0,3.81376.82509c3.24063-.88172,5.96962-.39689,7.96258,2.61989.33728.51056,1.22016.66069,1.85062.97742q-1.13364,1.46052-2.26662,2.92093a11.01145,11.01145,0,0,1-2.2229-2.23051,2.69375,2.69375,0,0,0-2.9498-1.53095c-1.07275.11445-2.12682.4829-3.19694.52115a7.43062,7.43062,0,0,1-3.28313-.35434,46.91391,46.91391,0,0,1-4.93551-2.996c-2.90132-1.82107-3.62805-1.81425-6.41588.3077a3.66087,3.66087,0,0,1-3.49536.7625,4.34978,4.34978,0,0,0-2.63.1734,11.41546,11.41546,0,0,1-7.15822.9066c-1.28386-.29709-3.24973-.20667-3.63123,1.41555a3.59541,3.59541,0,0,1-2.751,3.03914,5.86152,5.86152,0,0,0-1.72764,1.09036c-2.06467,1.58212-2.8643,1.60764-4.64559-.33112a3.20965,3.20965,0,0,0-4.03089-.79836,13.85447,13.85447,0,0,0-2.85062,2.09658c-2.10034,1.73962-3.95983,3.9197-6.31949,5.14786-1.79765.93567-2.7077,1.71818-2.66278,3.74243a2.36254,2.36254,0,0,1-2.69436,2.61445,11.33591,11.33591,0,0,1-2.66119-.49439c-2.11655-.55839-2.94814-.09588-3.4889,2.02129-1.03083,4.03585-2.06125,4.82271-6.17707,4.717-2.49886-.06416-2.83371.178-3.31841,2.63782-.286,1.45128-.92614,2.85042-2.4041,3.01959-2.76035.31594-3.45017,1.99364-3.52811,4.33174a1.38462,1.38462,0,0,1-.14051.66714,10.83336,10.83336,0,0,0-2.10971,5.60161c-.03155.8884-2.06445,1.88539-3.3444,2.5074-1.88026.91373-2.41323,1.93593-1.51886,3.78005,2.11534,4.36165,1.83273,5.65745-1.86869,8.56827-1.95129,1.53453-2.06054,1.78229-.86878,3.972,1.03874,1.90856,1.15413,3.67372-.32219,5.38166-.804.93019-.80172,1.748.33708,2.36705a84.042,84.042,0,0,0,8.59221,4.558c9.945,3.98742,20.44773,5.59507,31.02853,6.71669a229.74,229.74,0,0,0,32.32578,1.4c11.13048-.392,22.26851-.71586,33.38036-1.427,5.39559-.34529,10.74846-1.4482,16.10344-2.31454a47.37218,47.37218,0,0,0,15.46038-5.85239c3.18776-1.78227,5.97423-4.28227,9.012-6.51351-1.46015-1.79887-1.90654-3.28585-1.18972-5.12862,1.20392-3.095,1.07837-3.34186-1.8021-4.97407a4.53707,4.53707,0,0,1-2.60511-4.61585,13.8273,13.8273,0,0,1,.87972-3.257c.70029-1.95671.30926-2.858-1.6626-3.52474-.32431-.10967-.65741-.19344-.9865-.289-2.99165-.86851-3.8436-2.61271-2.537-5.386a2.43121,2.43121,0,0,0-.77374-3.3371c-2.12585-1.40992-2.5182-3.06016-1.6683-5.43064.78982-2.20288-.66955-3.79256-3.0411-3.62416-.96477.06851-1.92167.39271-2.879.37893a4.07253,4.07253,0,0,1-2.55135-.56052c-1.53317-1.51-3.68335-2.64608-3.76278-5.26816-.01332-.4395-.64487-.86028-.99077-1.28971Q223.94054,62.149,225.36816,61.31476Z" style="fill: #c50f33"/>
          <path d="M107.27255,163.28827a30.31857,30.31857,0,0,1,2.3197,2.12318c9.56242,10.69222,21.62071,15.38613,35.74222,13.93243,12.23646-1.25965,21.90537-7.17364,27.86609-18.26013,1.33742-2.4875,2.04422-5.31071,3.08043-7.96408,4.18618-10.71932,12.06919-17.50844,22.94538-20.6108A40.46571,40.46571,0,0,1,244.527,149.64228c.73658,1.1317,1.55032,2.21315,2.32808,3.31968a65.83193,65.83193,0,0,1-16.77849,26.80549,88.99182,88.99182,0,0,1-8.17429,6.76315,4.6238,4.6238,0,0,0-2.15266,4.017c.04109,1.31432-.001,2.63669.13046,3.94174.38385,3.80992-1.296,6.46909-4.45611,8.39129a31.74511,31.74511,0,0,1-10.6231,3.66943,154.07283,154.07283,0,0,1-31.72884,2.54379c-10.23785-.131-20.45413-.68761-30.47271-3.03862-3.89854-.91488-7.74184-2.0443-10.73683-4.95586a7.08684,7.08684,0,0,1-2.21054-5.04322c-.057-2.057-.09381-4.11758-.03531-6.17359a3.077,3.077,0,0,0-1.36022-2.74837c-3.27287-2.5627-6.79477-4.9161-9.61686-7.91794a132.10117,132.10117,0,0,1-9.36622-11.93982A24.85842,24.85842,0,0,1,107.27255,163.28827Z" style="fill: #023478"/>
          <path d="M225.36816,61.31476q-1.42762.83431-2.85453,1.66869c-.66465.307-1.358.56511-1.99115.92823Q209.3996,70.29093,198.28928,76.692a7.27757,7.27757,0,0,1-8.80023-1.44247l1.22226-1.08831c4.08066-2.5918,8.1829-5.15039,12.23638-7.784,4.77318-3.10123,9.50406-6.26751,14.25332-9.40558l2.74816-1.71745q17.816-11.54614,35.63121-23.09363,12.35183-8.01278,24.68076-16.06082a1.80322,1.80322,0,0,1,2.575.11346,20.911,20.911,0,0,0,1.86773,1.50451c2.61454,1.97378,2.32341,4.80653,2.02285,7.51106-.07185.64658-1.21034,1.28551-1.97419,1.72752q-15.03644,8.7009-30.10954,17.3384-14.01982,8.0589-28.03911,16.11869A13.696,13.696,0,0,0,225.36816,61.31476Z" style="fill: #07397b"/>
          <path d="M201.19561,50.068q1.13315-1.46043,2.26662-2.92093c2.86441-3.55226,5.70322-7.12518,8.59719-10.65284q14.614-17.81386,29.29105-35.57564A2.60043,2.60043,0,0,1,243.33991,0c3.30592.62378,6.6867,2.07936,7.54882,5.95925a2.89745,2.89745,0,0,1-.53474,2.2408c-7.10312,7.89273-14.27546,15.72316-21.42824,23.57123q-8.88365,9.74726-17.75528,19.50542c-.41982.462-.77049.98681-1.15327,1.48284q-1.05384,1.19645-2.10565,2.3917a11.42683,11.42683,0,0,0-1.1526.97181q-5.78459,6.31708-11.5464,12.655c-3.42325,3.74192-3.43061,3.73518-8.28729,2.96626l-1.03173-.3771.03209-1.71777c2.64751-3.3309,5.31858-6.6434,7.93569-9.998C196.33557,56.48,198.75312,53.26423,201.19561,50.068Z" style="fill: #06397b"/>
          <path d="M207.90939,55.15165q1.05394-1.19583,2.10783-2.39208a13.7992,13.7992,0,0,0,3.27354.18851,6.46934,6.46934,0,0,1,6.6584,2.30605q-1.374.85885-2.74808,1.71743a3.12531,3.12531,0,0,0-3.89147-.79432C211.09594,57.34565,209.51,56.52333,207.90939,55.15165Z" style="fill: #c51f41"/>
          <path d="M190.71132,74.16125l.59436-1.01911c-1.42452-.45457-2.90247-.92621-4.38042-1.39782,4.85669.769,4.864.77571,8.2873-2.9662q5.78163-6.31982,11.5464-12.65505a11.428,11.428,0,0,1,1.1526-.9718c1.59839,1.37206,3.18438,2.19438,5.398,1.02594a3.12533,3.12533,0,0,1,3.89147.79433c-4.74929,3.13816-9.48019,6.30443-14.25337,9.40567C198.89422,69.01086,194.792,71.56945,190.71132,74.16125Z" style="fill: #eff0f4"/>
          <path d="M185.89352,71.36727l-.96675-.64289.99884-1.07489Z" style="fill: #eff0f4"/>
          <g>
            <g>
              <g>
                <path d="M156.48451,106.054a41.71658,41.71658,0,0,0,41.047-3.01576c1.59651-1.06861.09633-3.66837-1.51415-2.59042a38.69732,38.69732,0,0,1-38.01866,3.01577c-1.73831-.81321-3.26336,1.7721-1.51416,2.59041Z" style="fill: #124281"/>
                <path d="M181.88476,109.63293c2.56172,5.54948,6.82763,8.91913,13.24491,7.29773,6.19482-1.56519,4.86889-10.35983,3.52433-14.78758-.55945-1.8423-3.456-1.057-2.89284.79752,1.01665,3.34791,2.71273,10.66574-2.49532,11.24834-4.75976.53246-6.97171-2.12975-8.79066-6.07017-.80829-1.751-3.395-.22874-2.59042,1.51416Z" style="fill: #124281"/>
              </g>
              <path d="M191.34166,109.32475a16.09657,16.09657,0,0,1,1.54013,2.62569c.27156.58281,1.13386.07557.86347-.50472a16.09606,16.09606,0,0,0-1.54013-2.62568c-.37305-.51716-1.24091-.01852-.86347.50471Z" style="fill: #124281"/>
            </g>
            <g>
              <path d="M148.28314,92.38772c3.04213-3.85682,12.58353-8.39676,14.34553-.82856.4376,1.87959,3.33087,1.084,2.89284-.79752-2.266-9.73319-14.80864-6.26507-19.35969-.49524-1.183,1.49974.92591,3.63686,2.12132,2.12132Z" style="fill: #124281"/>
              <path d="M201.9351,87.02685c-4.78918-5.42611-17.60647-8.48447-19.34316,1.42653-.33084,1.8881,2.55969,2.69875,2.89284.79752,1.33659-7.62769,11.04705-3.82116,14.329-.10273,1.28012,1.45036,3.39521-.678,2.12132-2.12132Z" style="fill: #124281"/>
            </g>
          </g>
        </g>
        <g>
          <path d="M3.25417,250.607a.60543.60543,0,0,1-.175-.29167q0-.46667.74375-1.12292a5.66132,5.66132,0,0,1,1.93958-1.06458l1.07917-.37917h.175a.91021.91021,0,0,1,.75833.49584,2.325,2.325,0,0,1,.32083,1.28333,5.6914,5.6914,0,0,1-.11666.7875,2.07,2.07,0,0,0-.67084,1.60417v1.19583q0,12.62918-.32083,20.12582-.32083,7.49583-.32083,7.7,0,.67083.14583,2.26042t.14583,2.58125a4.23174,4.23174,0,0,1-.42291,2.0125q-.42293.7875-1.00625.7875a1.85614,1.85614,0,0,1-.49584-.11667,1.91928,1.91928,0,0,0-.58333-.11667,1.69174,1.69174,0,0,0-.4375.0875,2.22594,2.22594,0,0,1-.64167.0875Q2,288.52444,2,286.97861a8.39506,8.39506,0,0,1,.11667-.90417q.84583-.875,1.3125-4.41875t.46666-16.17292A138.17424,138.17424,0,0,0,3.25417,250.607Zm31.00417,32.49248a1.38,1.38,0,0,1,1.02083,1.37084,4.2716,4.2716,0,0,1-.88958,2.78541,2.7611,2.7611,0,0,1-2.23125,1.09375,2.99985,2.99985,0,0,1-2.42245-1.58958q-1.07918-1.58715-5.35209-4.63588-4.27049-3.04793-7.75671-5.77662a25.81422,25.81422,0,0,0-6.34375-3.83542q-2.18751-1.25416-2.18751-2.24583a2.1769,2.1769,0,0,1,.46667-1.19584,11.41723,11.41723,0,0,0,2.39167-2.33333,7.63035,7.63035,0,0,1,1.37083-.37917q.49584-.40833,1.32709-1.05a5.91013,5.91013,0,0,0,.91875-.7875q.58333-.99167,3.08194-4.27373,2.49618-3.28125,4.132-5.55625l4.06065-5.83333a8.59253,8.59253,0,0,1,1.97361-.29167,4.95531,4.95531,0,0,1,.92847.05833,2.525,2.525,0,0,1,.23171,1.07917v.23333a2.43881,2.43881,0,0,1-.40833,1.25417,27.34791,27.34791,0,0,0-4.22917,3.7625q.05833.525-1.95579,2.88669l-2.45,3.00336-1.92662,2.74086-1.28171,1.16666q-.525.46668-.81667.75834a3.9354,3.9354,0,0,0-.35.37754,11.17539,11.17539,0,0,1-.80046,1.42917,2.58742,2.58742,0,0,0-.51042,1.13588,2.87577,2.87577,0,0,0,.87824,2.08542,22.30833,22.30833,0,0,0,2.75787,2.23125q1.88126,1.34166,3.20672,2.33495,1.32708.99167,1.85208,1.34329a13.55724,13.55724,0,0,1,1.4713,1.225q.94791.87743,1.41458,1.25579a5.23361,5.23361,0,0,1,1.45672.84583,4.3821,4.3821,0,0,0,.86041.64167,2.166,2.166,0,0,1,.71459.64329q.2625.11666.7.2625a2.38655,2.38655,0,0,1,.55416.23333v.05833q0,.49584,1.63334,1.05a10.38436,10.38436,0,0,0,1.95416.55417A1.87582,1.87582,0,0,0,34.25834,283.09944Z" style="fill: #c50f33;stroke: #c50f33;stroke-miterlimit: 10;stroke-width: 4px"/>
          <path d="M47.6102,248.62362l9.672-.23333,2.62176.11667a12.9842,12.9842,0,0,0,2.21343-.32084,13.27719,13.27719,0,0,1,2.50509-.32083q2.01006,0,2.01088,1.8375a1.54308,1.54308,0,0,1-.16042.7,1.8792,1.8792,0,0,1-.46829.58333,1.10593,1.10593,0,0,1-.59791.29167l-.90579.05834q-.61492.02916-1.08079.02916c-.07777,0-.30139-.02916-.67245-.0875a51.384,51.384,0,0,0-9.98959-.90417c-.79722,0-1.83588.02431-3.10949.07292a9.98292,9.98292,0,0,0-2.19074.20417,4.96518,4.96518,0,0,0-.6287.36458,27.44241,27.44241,0,0,0-.875,5.8625v.35A23.09436,23.09436,0,0,0,45.575,260.932a7.37428,7.37428,0,0,0,.175,1.75081l.35162,1.28333a2.002,2.002,0,0,0,.49583.99167,1.26223,1.26223,0,0,0,.96412.40834l.70163-.05834a.61172.61172,0,0,1,.58495.2625q.14583.2625,1.69491.2625a17.38292,17.38292,0,0,0,1.91365-.10208,5.81314,5.81314,0,0,1,1.40325-.02917,5.28175,5.28175,0,0,0,.71458.07292,2.17939,2.17939,0,0,0,1.37407-.40833l1.51991.14583a13.30757,13.30757,0,0,1,3.3007-.46667,1.89729,1.89729,0,0,1,.49745,1.3125,2.30546,2.30546,0,0,1-.59954,1.50209q-.59792.71457-3.95856.71458-1.40244,0-4.61644-.29167-3.21562-.29166-5.08472-.29166-1.05243.6125-1.05162,1.07916a.23113.23113,0,0,0,.05833.175,22.45145,22.45145,0,0,0-.78912,6.2125l.23333,4.95834q0,1.10833-.29166,1.25417a10.9189,10.9189,0,0,1,.65625,2.34791,13.94486,13.94486,0,0,1,.30625,2.43542,1.87064,1.87064,0,0,1-.46343,1.37083,1.265,1.265,0,0,1-.78426.46667.77545.77545,0,0,1-.5493-.35,2.29961,2.29961,0,0,1-1.016.64167q-.1434-.05834-.86852-.23334a1.37579,1.37579,0,0,1-1.18935-1.4875,3.98851,3.98851,0,0,1,.14584-.875l.14583-.49583-.05833-.9625a2.26232,2.26232,0,0,1,.20416-.67083,2.94482,2.94482,0,0,0,.23334-.875q.29166-2.975.29166-6.825l-.05833-4.52083.23333-13.33a39.743,39.743,0,0,0-.23333-5.29375,15.50824,15.50824,0,0,1-.23333-2.05625,7.41329,7.41329,0,0,1,.4375-2.45,17.05109,17.05109,0,0,1,2.44676-.525l.175-.37917.40671.2625.40833-.11667A3.65975,3.65975,0,0,1,47.6102,248.62362Z" style="fill: #c50f33;stroke: #c50f33;stroke-miterlimit: 10;stroke-width: 4px"/>
          <path d="M102.18752,249.52779q2.04166-.14583,5.075,4.50625a18.28749,18.28749,0,0,1,3.03334,10.19456,26.446,26.446,0,0,1-.525,5.36667,18.87233,18.87233,0,0,1-1.575,4.6375,58.72086,58.72086,0,0,1-3.17917,6.00834,18.70064,18.70064,0,0,1-4.68125,4.9,19.44182,19.44182,0,0,1-5.3375,2.69792,20.366,20.366,0,0,1-6.13959.86041q-8.10833,0-8.72083-1.42916-.58333-.23334-1.75-.62709a5.11729,5.11729,0,0,1-1.25417-.51041l-.75833-.93334q-1.02084-.2625-1.07917-.2625a11.3643,11.3643,0,0,1-4.49167-5.25,24.62718,24.62718,0,0,1-1.42916-9.42083q0-4.69584,3.17916-10.93832a5.26338,5.26338,0,0,0,.36459-1.03541,1.843,1.843,0,0,1,.7-1.03542,1.39187,1.39187,0,0,0,.59791-.72917q2.47917-2.74167,2.93125-3.36875a5.01356,5.01356,0,0,1,2.11459-1.29791A4.19323,4.19323,0,0,0,81.45,250.257a.4369.4369,0,0,1,.51042-.21875,2.61968,2.61968,0,0,0,.51041.07291l.23334-.05833a5.1552,5.1552,0,0,1,.42291-.48125q.21876-.21874.32084-.18958a18.4398,18.4398,0,0,0,2.23125-.7,8.9258,8.9258,0,0,1,2.46458-.65625,13.18246,13.18246,0,0,0,2.52292-.24792l1.89583-.35a7.19523,7.19523,0,0,1,1.60417.21875q.93333.21875,1.25416.27708Q100.75836,248.4778,102.18752,249.52779Zm.875,29.02165q3.52917-6.41667,3.52917-11.75417a23.247,23.247,0,0,0-.84583-6.53414,14.30163,14.30163,0,0,0-2.45-4.91459,12.87894,12.87894,0,0,0-3.7625-3.25208,14.74638,14.74638,0,0,0-5.49792-1.63334q-3.33958-.40833-3.98125-.40833a1.81348,1.81348,0,0,0-.525.30625,3.48354,3.48354,0,0,0-.7875.77292,2.30221,2.30221,0,0,1-.9625.175l-.9625-.05834a1.73213,1.73213,0,0,0-1.60417.90417.23767.23767,0,0,1-.175.05834q-.14583,0-.23333-.29167l-.4375.23333v.40834q-.08751,0-.20417-.20417t-.2625-.20417h-.11667q-2.77083.9625-3.2375,1.60417a5.93142,5.93142,0,0,1-1.07917.32083,14.51859,14.51859,0,0,0-1.06458,1.28334q-.71459.93333-1.16667,1.47291a7.84239,7.84239,0,0,1-.875.90417,1.65031,1.65031,0,0,0-.42291,1.29792,9.64572,9.64572,0,0,0-2.42084,4.63831,25.24939,25.24939,0,0,0-.90416,6.76667,16.59506,16.59506,0,0,0,.9625,5.80416q.96249,2.59584,2.3625,3.26667v.6125a20.30917,20.30917,0,0,0,1.925,1.95417,8.96828,8.96828,0,0,0,2.975,1.58958q1.95417.68543,3.31042,1.07917a24.5274,24.5274,0,0,0,3.03333.65625,21.56669,21.56669,0,0,0,3.33958.2625q.99168,0,1.575-.05833l2.07084-.49584q.93333-.20417,1.4875-.29166a13.52194,13.52194,0,0,0,1.54583-.875l2.1-1.19584a1.34314,1.34314,0,0,0,.4375-.32083.85315.85315,0,0,0,.175-.525v-.23333a3.15447,3.15447,0,0,1,1.12292-.84584q.97709-.55416,1.56042-.875a.92373.92373,0,0,0,.58333-.7875A1.375,1.375,0,0,0,103.06252,278.54944Z" style="fill: #c50f33;stroke: #c50f33;stroke-miterlimit: 10;stroke-width: 4px"/>
          <path d="M148.53337,249.52779q2.04166-.14583,5.075,4.50625a18.28756,18.28756,0,0,1,3.03333,10.19456,26.446,26.446,0,0,1-.525,5.36667,18.87233,18.87233,0,0,1-1.575,4.6375,58.71877,58.71877,0,0,1-3.17917,6.00834,18.70048,18.70048,0,0,1-4.68125,4.9,19.44154,19.44154,0,0,1-5.3375,2.69792,20.36588,20.36588,0,0,1-6.13958.86041q-8.10834,0-8.72084-1.42916-.58334-.23334-1.75-.62709a5.1175,5.1175,0,0,1-1.25417-.51041l-.75833-.93334q-1.02082-.2625-1.07917-.2625a11.36428,11.36428,0,0,1-4.49166-5.25,24.62715,24.62715,0,0,1-1.42917-9.42083q0-4.69584,3.17917-10.93832a5.26278,5.26278,0,0,0,.36458-1.03541,1.84308,1.84308,0,0,1,.7-1.03542,1.3919,1.3919,0,0,0,.59792-.72917q2.47917-2.74167,2.93125-3.36875a5.01358,5.01358,0,0,1,2.11458-1.29791,4.19319,4.19319,0,0,0,2.1875-1.60417.4369.4369,0,0,1,.51042-.21875,2.61966,2.61966,0,0,0,.51042.07291l.23333-.05833a5.15382,5.15382,0,0,1,.42292-.48125q.21874-.21874.32083-.18958a18.43852,18.43852,0,0,0,2.23125-.7,8.9258,8.9258,0,0,1,2.46458-.65625,13.18234,13.18234,0,0,0,2.52292-.24792l1.89584-.35a7.19515,7.19515,0,0,1,1.60416.21875q.93333.21875,1.25417.27708Q147.1042,248.4778,148.53337,249.52779Zm.875,29.02165q3.52917-6.41667,3.52916-11.75417a23.247,23.247,0,0,0-.84583-6.53414,14.30146,14.30146,0,0,0-2.45-4.91459,12.87882,12.87882,0,0,0-3.7625-3.25208,14.74638,14.74638,0,0,0-5.49792-1.63334q-3.33958-.40833-3.98125-.40833a1.81375,1.81375,0,0,0-.525.30625,3.48354,3.48354,0,0,0-.7875.77292,2.30221,2.30221,0,0,1-.9625.175l-.9625-.05834a1.73214,1.73214,0,0,0-1.60417.90417.23767.23767,0,0,1-.175.05834q-.14583,0-.23333-.29167l-.4375.23333v.40834q-.08749,0-.20417-.20417t-.2625-.20417h-.11666q-2.77084.9625-3.2375,1.60417a5.93142,5.93142,0,0,1-1.07917.32083,14.51679,14.51679,0,0,0-1.06458,1.28334q-.71459.93333-1.16667,1.47291a7.84406,7.84406,0,0,1-.875.90417,1.65027,1.65027,0,0,0-.42292,1.29792,9.64572,9.64572,0,0,0-2.42083,4.63831,25.249,25.249,0,0,0-.90417,6.76667,16.59506,16.59506,0,0,0,.9625,5.80416q.9625,2.59584,2.3625,3.26667v.6125a20.31033,20.31033,0,0,0,1.925,1.95417,8.96838,8.96838,0,0,0,2.975,1.58958q1.95417.68543,3.31042,1.07917a24.52821,24.52821,0,0,0,3.03333.65625,21.56672,21.56672,0,0,0,3.33959.2625q.99166,0,1.575-.05833l2.07083-.49584q.93333-.20417,1.4875-.29166a13.52254,13.52254,0,0,0,1.54584-.875l2.1-1.19584a1.34336,1.34336,0,0,0,.4375-.32083.85322.85322,0,0,0,.175-.525v-.23333a3.15439,3.15439,0,0,1,1.12291-.84584q.97708-.55416,1.56042-.875a.92373.92373,0,0,0,.58333-.7875A1.375,1.375,0,0,0,149.40837,278.54944Z" style="fill: #c50f33;stroke: #c50f33;stroke-miterlimit: 10;stroke-width: 4px"/>
          <path d="M186.032,248.79862a15.64366,15.64366,0,0,1,7.28356,6.11042,16.89574,16.89574,0,0,1,2.58449,9.2029,15.72428,15.72428,0,0,1-.49583,3.87917,19.63806,19.63806,0,0,1-1.51829,3.87916,23.03832,23.03832,0,0,1-2.45324,3.7625,27.62829,27.62829,0,0,1-3.29745,3.47084,33.16515,33.16515,0,0,1-4.11736,3.12083,37.88126,37.88126,0,0,1-4.8757,2.65417l-2.04329,1.34167-2.5699.81666q-2.01493.67084-2.04329.67084a1.87588,1.87588,0,0,1-.55417-.11667,1.77872,1.77872,0,0,1-.58495.55417,1.68327,1.68327,0,0,1-.49584.2625h-.81666a1.86451,1.86451,0,0,1-.97871.875,2.96685,2.96685,0,0,1-1.06458.32083,6.76339,6.76339,0,0,1-.862-.0875,6.88946,6.88946,0,0,0-.91875-.0875h-.20579q-.64166,0-.64166-1.37083a8.06974,8.06974,0,0,1,.175-1.02084,57.24666,57.24666,0,0,0,1.02083-11.05417l-.11667-8.89583.05834-8.78a41.80265,41.80265,0,0,0-.18959-4.8125,31.95732,31.95732,0,0,1-.18958-3.96667,3.91821,3.91821,0,0,1,.0875-1.1375.6084.6084,0,0,0,.46667-.58333h1.02245l.175-.49584a6.85466,6.85466,0,0,0,3.41574.90417,5.28647,5.28647,0,0,0,1.02246-.0875l.81666-.14583a6.67589,6.67589,0,0,1,.83287.11666,6.25226,6.25226,0,0,0,.88959.11667l.70162-.11667a16.23459,16.23459,0,0,1,1.95579-.11666,36.11043,36.11043,0,0,1,5.12361.30625q2.08785.30624,2.087.51041a1.85035,1.85035,0,0,0,.49745.11667A6.30364,6.30364,0,0,0,186.032,248.79862ZM170.43754,282.4837a7.033,7.033,0,0,0-.11667,1.02246q0,2.15832,1.13912,2.15995a13.25482,13.25482,0,0,0,4.25024-.81829,21.22878,21.22878,0,0,0,4.77361-2.39329,14.98485,14.98485,0,0,1,2.23449-1.25416,16.63922,16.63922,0,0,0,3.51944-2.91991,22.11036,22.11036,0,0,0,2.89075-3.45949,19.38063,19.38063,0,0,0,2.01574-3.86783,13.99373,13.99373,0,0,0,1.16828-4.29074,24.93153,24.93153,0,0,0-1.00787-7.57442,11.92665,11.92665,0,0,0-3.44653-5.32778,12.5843,12.5843,0,0,0-5.53518-2.93368,43.4267,43.4267,0,0,0-9.37547-.74456l-.23333.61331h-.23333a1.73855,1.73855,0,0,1-.78912-.175q-1.925,1.897-1.925,16.66713l.2625,14.47963-.05834.23334A.6084.6084,0,0,0,170.43754,282.4837Z" style="fill: #c50f33;stroke: #c50f33;stroke-miterlimit: 10;stroke-width: 4px"/>
          <path d="M233.75839,252.44446a10.88071,10.88071,0,0,1-1.19584-1.02083,2.89806,2.89806,0,0,0-2.04166-.81667,11.63828,11.63828,0,0,0-7.35,2.09838,6.68878,6.68878,0,0,0-2.68333,5.53843q.00243,3.73089,7.9625,7.88067a7.31581,7.31581,0,0,1,1.21042.11667,6.1403,6.1403,0,0,1,2.30417,1.67708,18.75058,18.75058,0,0,1,2.46458,2.8,10.57271,10.57271,0,0,1,1.28333,2.50833,7.70046,7.70046,0,0,1,.4375,2.52292q0,5.54167-2.59583,8.575t-9.24584,5.45417a2.0438,2.0438,0,0,0-.64166-.11667,3.83023,3.83023,0,0,0-1.47292.51042,10.6058,10.6058,0,0,1-4.09792.51042,1.59743,1.59743,0,0,1-1.56041-.91875,6.40009,6.40009,0,0,1-.45209-2.72709,1.67688,1.67688,0,0,1,.40834-1.02083h.23333a2.24027,2.24027,0,0,1,1.575.90417,14.85746,14.85746,0,0,0,2.1875.40833q.32083,0,2.75625-.30625a14.33249,14.33249,0,0,0,4.60834-1.3838,8.886,8.886,0,0,0,2.96041-2.07083,16.7684,16.7684,0,0,0,1.54584-2.37546,6.47657,6.47657,0,0,0,.75833-3.163,9.03925,9.03925,0,0,0-1.62037-5.08634,5.71763,5.71763,0,0,0-3.547-2.7838v-.0875q0-.49583-1.3125-1.25254-5.12847-2.34549-7.18473-4.63427a7.833,7.833,0,0,1-2.05625-5.41122,9.02911,9.02911,0,0,1,.33542-2.45,9.6704,9.6704,0,0,1,.97708-2.28959,9.47077,9.47077,0,0,1,1.58959-2.0125,13.25575,13.25575,0,0,1,2.55208-1.85208,5.6806,5.6806,0,0,1,2.24583-.93334h.90417a7.98347,7.98347,0,0,0,.64167-.67083,5.589,5.589,0,0,0,1.72083-.46667q.96251-.40833,1.225-.49583a.93412.93412,0,0,1,.40834.49583,7.91252,7.91252,0,0,1,1.6625-.175h.6125a4.90649,4.90649,0,0,1,2.07083.35,1.48,1.48,0,0,1,.72917,1.4875,3.8384,3.8384,0,0,1-.42292,1.76459Q234.22506,252.357,233.75839,252.44446Z" style="fill: #c50f33;stroke: #c50f33;stroke-miterlimit: 10;stroke-width: 4px"/>
          <path d="M273.6584,250.957a1.86971,1.86971,0,0,1-.05834-.58334q0-.93333,1.69167-1.75a11.0091,11.0091,0,0,1,1.89583-.81666h.23334a1.02407,1.02407,0,0,1,.84583.48125,1.95427,1.95427,0,0,1,.35,1.18125,2.56837,2.56837,0,0,1-.175.90416q-.67083.23334-.67083,1.72084l.14583,5.425q0,11.63873-.36458,18.6529-.36459,7.01458-.36459,7.21875a2.86565,2.86565,0,0,0,.9625,2.21667q-.14583.84584-.23333,1.44375t-.2625.65625a6.86869,6.86869,0,0,0-2.02708.72916,4.48444,4.48444,0,0,1-1.47292.58334q-.23334,0-.7875-.49584l-.35-2.07083a14.1104,14.1104,0,0,0,1.25417-6.41667v-.99167l.05833-9.275a1.64084,1.64084,0,0,0-.37917-.75833,1.45238,1.45238,0,0,0-.86041-.62708,5.62891,5.62891,0,0,0-1.15209-.10209l-1.4875.175h-3.12083q-5.01668,0-6.25625.0875a6.78759,6.78759,0,0,0-1.80834.30625,3.70735,3.70735,0,0,1-.65625.21875.75034.75034,0,0,1-.7-.4375,6.058,6.058,0,0,1-2.1.4375l-2.33333-.11666q-4.55,0-4.55,1.54583v.7l-.05834,2.33333.05834,2.56667-.11667,4.49167a18.95383,18.95383,0,0,0,.42292,3.7625,17.55993,17.55993,0,0,1,.42291,2.74167l-.05833,1.1375-1.02083.67083a5.13818,5.13818,0,0,0-2.275-.49583,5.52226,5.52226,0,0,0-.9625.05833q-.32083-.35-.525-.35a.16806.16806,0,0,0-.11667.05833,3.723,3.723,0,0,1-.11667-.90416q0-.08751.05834-.75834a127.76968,127.76968,0,0,0,.84583-13.00833l.29167-14.52582.175-4.95833a23.33713,23.33713,0,0,0-.90417-6.15417l-.40833-.4375a.30936.30936,0,0,0,.35-.35v-.40833q0-.49584.35-.55417a2.67061,2.67061,0,0,1,1.98333-1.1375,7.496,7.496,0,0,1,2.8.84583q-1.3125,15.42918-1.3125,16.91748,0,.175.05833.88959t.05834.77291l-.05834.29167a1.80017,1.80017,0,0,0,.81667,1.4,2.709,2.709,0,0,0,1.69167.64167h.37916a9.05418,9.05418,0,0,1,1.32709.14583,9.03109,9.03109,0,0,0,1.29792.14584q.23333,0,2.24583-.2625a25.50908,25.50908,0,0,1,2.94583-.2625q2.59584,0,4.55.11666t2.0125.11667a.58657.58657,0,0,0,.55417-.4375,8.68694,8.68694,0,0,0,2.24584.32083h2.82916a.81373.81373,0,0,1,.58334-.32083,2.04666,2.04666,0,0,0,1.53125-.83125,2.20786,2.20786,0,0,0,.45208-1.06459v-1.6625l.05833-5.74664v-1.37083Q274.38756,251.132,273.6584,250.957Z" style="fill: #c50f33;stroke: #c50f33;stroke-miterlimit: 10;stroke-width: 4px"/>
          <path d="M320.15007,249.52779q2.04168-.14583,5.075,4.50625a18.28749,18.28749,0,0,1,3.03334,10.19456,26.446,26.446,0,0,1-.525,5.36667,18.87233,18.87233,0,0,1-1.575,4.6375,58.72086,58.72086,0,0,1-3.17917,6.00834,18.70048,18.70048,0,0,1-4.68125,4.9,19.44182,19.44182,0,0,1-5.3375,2.69792,20.366,20.366,0,0,1-6.13959.86041q-8.10832,0-8.72083-1.42916-.58333-.23334-1.75-.62709a5.11729,5.11729,0,0,1-1.25417-.51041l-.75833-.93334q-1.02084-.2625-1.07917-.2625a11.3643,11.3643,0,0,1-4.49167-5.25,24.62737,24.62737,0,0,1-1.42916-9.42083q0-4.69584,3.17916-10.93832a5.26338,5.26338,0,0,0,.36459-1.03541,1.843,1.843,0,0,1,.7-1.03542,1.39187,1.39187,0,0,0,.59791-.72917q2.47917-2.74167,2.93125-3.36875a5.01356,5.01356,0,0,1,2.11459-1.29791,4.19323,4.19323,0,0,0,2.1875-1.60417.4369.4369,0,0,1,.51042-.21875,2.61968,2.61968,0,0,0,.51041.07291l.23334-.05833a5.1552,5.1552,0,0,1,.42291-.48125q.21876-.21874.32084-.18958a18.4398,18.4398,0,0,0,2.23125-.7,8.9258,8.9258,0,0,1,2.46458-.65625,13.18246,13.18246,0,0,0,2.52292-.24792l1.89583-.35a7.19523,7.19523,0,0,1,1.60417.21875q.93333.21875,1.25417.27708Q318.7209,248.4778,320.15007,249.52779Zm.875,29.02165q3.52917-6.41667,3.52917-11.75417a23.247,23.247,0,0,0-.84583-6.53414,14.30163,14.30163,0,0,0-2.45-4.91459,12.87894,12.87894,0,0,0-3.7625-3.25208,14.74638,14.74638,0,0,0-5.49792-1.63334q-3.33959-.40833-3.98125-.40833a1.81348,1.81348,0,0,0-.525.30625,3.48354,3.48354,0,0,0-.7875.77292,2.30221,2.30221,0,0,1-.9625.175l-.9625-.05834a1.73213,1.73213,0,0,0-1.60417.90417.23767.23767,0,0,1-.175.05834q-.14583,0-.23333-.29167l-.4375.23333v.40834q-.08751,0-.20417-.20417t-.2625-.20417h-.11667q-2.77083.9625-3.2375,1.60417a5.93137,5.93137,0,0,1-1.07916.32083,14.51641,14.51641,0,0,0-1.06459,1.28334q-.71458.93333-1.16667,1.47291a7.84239,7.84239,0,0,1-.875.90417,1.65031,1.65031,0,0,0-.42291,1.29792,9.64572,9.64572,0,0,0-2.42084,4.63831,25.24939,25.24939,0,0,0-.90416,6.76667,16.59506,16.59506,0,0,0,.9625,5.80416q.96249,2.59584,2.3625,3.26667v.6125a20.30917,20.30917,0,0,0,1.925,1.95417,8.96828,8.96828,0,0,0,2.975,1.58958q1.95417.68543,3.31042,1.07917a24.5274,24.5274,0,0,0,3.03333.65625,21.56669,21.56669,0,0,0,3.33958.2625q.99168,0,1.575-.05833l2.07084-.49584q.93333-.20417,1.4875-.29166a13.52194,13.52194,0,0,0,1.54583-.875l2.1-1.19584a1.34314,1.34314,0,0,0,.4375-.32083.85315.85315,0,0,0,.175-.525v-.23333a3.15457,3.15457,0,0,1,1.12292-.84584q.97708-.55416,1.56042-.875a.92373.92373,0,0,0,.58333-.7875A1.375,1.375,0,0,0,321.02507,278.54944Z" style="fill: #c50f33;stroke: #c50f33;stroke-miterlimit: 10;stroke-width: 4px"/>
          <path d="M337.73758,275.39944a16.99744,16.99744,0,0,1,.67083-1.575,39.27628,39.27628,0,0,0,.175-4.1125l-.05833-3.47083.11666-6.27165a61.05959,61.05959,0,0,0-.2625-6.79583q-.2625-2.07084-.2625-2.15834a3.13151,3.13151,0,0,1,.0875-.65625,3.02675,3.02675,0,0,0,.0875-.53958l-.05833-.58334q0-1.02083,1.32708-1.38541a25.57926,25.57926,0,0,1,5.46876-.36459,35.80564,35.80564,0,0,1,6.81041.56875,16.4559,16.4559,0,0,1,5.00209,1.76459,8.6091,8.6091,0,0,1,3.00417,2.56667,11.0998,11.0998,0,0,1,1.29791,2.55208,14.32728,14.32728,0,0,1,.39375,4.03958,9.04729,9.04729,0,0,1-.59791,3.44248,26.95328,26.95328,0,0,1-2.14375,3.89375,18.26319,18.26319,0,0,1-3.54375,4.14167,18.01683,18.01683,0,0,1-4.28751,2.74167,19.69088,19.69088,0,0,1-5.23541,1.47291,6.3648,6.3648,0,0,0-2.96042.9625q-.77292.64167-.77292,2.91667a12.6891,12.6891,0,0,0,.20417,2.14375,14.81565,14.81565,0,0,1,.20417,2.52292l-.05834,1.3125a8.38775,8.38775,0,0,0,.11667,1.3125l.11667.72917v.40833q0,.46666-.175.59792a3.01384,3.01384,0,0,1-.97709.27708,8.64553,8.64553,0,0,0-1.56042.4375,4.94487,4.94487,0,0,1-.875.29167,2.35576,2.35576,0,0,1-.64166-.20417,5.775,5.775,0,0,0-.9625-.30625q-.46667-.10209-.46667-.30625,0-.175.53958-.77292a1.87108,1.87108,0,0,0,.53959-1.26875v-.175a20.43988,20.43988,0,0,1,.42291-2.30416,13.46469,13.46469,0,0,0,.27709-3.0625q0-1.13751-.10209-2.40626a6.31654,6.31654,0,0,0-.20416-1.45833,2.79524,2.79524,0,0,0-.37917-.49583,1.26143,1.26143,0,0,1-.27708-.36459Zm4.49167-2.45a34.34181,34.34181,0,0,0,4.44791-1.00625,28.20468,28.20468,0,0,0,3.77709-1.41458,9.29783,9.29783,0,0,0,2.47916-1.54584q.7875-.75833,1.76459-1.8375t1.50208-1.77916q.2625-.7.81667-1.96876a8.48038,8.48038,0,0,0,.68542-2.37789,22.388,22.388,0,0,0,.13125-2.59583q0-3.23751-1.54584-4.71042a25.05455,25.05455,0,0,0-3.57292-2.8,11.28846,11.28846,0,0,0-6.11041-1.32709h-2.04167a2.54246,2.54246,0,0,0-1.99792.65625,3.59156,3.59156,0,0,0-.56875,2.31876l.23334,4.55-.05834,5.01666v6.62165Q342.17091,271.37444,342.22925,272.94944Z" style="fill: #c50f33;stroke: #c50f33;stroke-miterlimit: 10;stroke-width: 4px"/>
        </g>
      </g>
    </g>
  </g>
</svg>
